<svg xmlns="http://www.w3.org/2000/svg" xmlns:xlink="http://www.w3.org/1999/xlink" viewBox="0 0 391.18 391.18"><defs><style>.cls-1{fill:url(#未命名的渐变_11);}.cls-2{fill:url(#未命名的渐变_11-2);}.cls-3{fill:url(#未命名的渐变_11-3);}.cls-4{fill:url(#未命名的渐变_11-4);}.cls-5{fill:url(#未命名的渐变_11-5);}.cls-6{fill:url(#未命名的渐变_11-6);}.cls-7{fill:url(#未命名的渐变_11-7);}.cls-8{fill:url(#未命名的渐变_11-8);}.cls-9{fill:none;}</style><linearGradient id="未命名的渐变_11" x1="66.15" y1="134.07" x2="66.15" y2="255.08" gradientUnits="userSpaceOnUse"><stop offset="0" stop-color="#e78e27"/><stop offset="1" stop-color="#eb5c4f"/></linearGradient><linearGradient id="未命名的渐变_11-2" x1="74.36" y1="194.34" x2="74.36" y2="257.02" xlink:href="#未命名的渐变_11"/><linearGradient id="未命名的渐变_11-3" x1="124.21" y1="193.76" x2="124.21" y2="257.02" xlink:href="#未命名的渐变_11"/><linearGradient id="未命名的渐变_11-4" x1="173.67" y1="194.34" x2="173.67" y2="256.24" xlink:href="#未命名的渐变_11"/><linearGradient id="未命名的渐变_11-5" x1="214.75" y1="193.76" x2="214.75" y2="257.02" xlink:href="#未命名的渐变_11"/><linearGradient id="未命名的渐变_11-6" x1="279.49" y1="194.34" x2="279.49" y2="257.11" xlink:href="#未命名的渐变_11"/><linearGradient id="未命名的渐变_11-7" x1="316.48" y1="194.34" x2="316.48" y2="256.24" xlink:href="#未命名的渐变_11"/><linearGradient id="未命名的渐变_11-8" x1="355.79" y1="194.34" x2="355.79" y2="256.24" xlink:href="#未命名的渐变_11"/></defs><g id="图层_2" data-name="图层 2"><g id="图层_1-2" data-name="图层 1"><path class="cls-1" d="M44.43,238.94a53.63,53.63,0,0,1,.32-5.64l0-.17L46,224.68l3.13-27.23a9,9,0,0,1,9-8h1A9,9,0,0,1,68,199.68l-4.49,33.54a29.39,29.39,0,0,0-.24,3.5c0,5.41,1.78,7.24,7,7.24,6.79,0,10.06-3.28,10.93-11l3.94-35.5a9,9,0,0,1,9-8h1.11a9,9,0,0,1,8.92,10.18l-3.53,26.9-.86,7.09a36.66,36.66,0,0,1-5.52,16.21,52.62,52.62,0,0,0,5.29-3.69l.83-3.21a6.54,6.54,0,0,1,3.4-4.21l3.82-1.91.61.67a53.22,53.22,0,0,0,5.4-8.3c-.29-.21-.59-.42-.86-.63a23.71,23.71,0,0,1-5.71-6.55,19,19,0,0,1-2.58-9.9,21.1,21.1,0,0,1,3.69-12.06,24.5,24.5,0,0,1,9.66-8.25l.68-.31a74.61,74.61,0,0,0-49.34-57.44,37.07,37.07,0,0,1,2.11,10.3c.06.78.08,1.56.08,2.35a36.23,36.23,0,0,1-.36,5.13,37.48,37.48,0,0,1-26.15,30.69,24.07,24.07,0,0,1-4.1-24.07,53,53,0,0,0,9.76,96.61C46.5,251.05,44.43,245.64,44.43,238.94Z"/><path class="cls-2" d="M95.81,225.87,94.94,233q-1.35,11.56-7.76,17.79T69.68,257q-9.54,0-14.94-4.73t-5.4-13.4a46.22,46.22,0,0,1,.29-5.11l1.25-8.49L54,198a4.1,4.1,0,0,1,4.07-3.63h1A4.09,4.09,0,0,1,63.18,199l-4.49,33.54a34.54,34.54,0,0,0-.29,4.15q0,12.15,12,12.15,14.07,0,15.81-15.33L90.1,198a4.1,4.1,0,0,1,4.08-3.65h1.11A4.1,4.1,0,0,1,99.35,199Z"/><path class="cls-3" d="M145.14,198.17l-1.94,6.47a1.62,1.62,0,0,1-1,1.06h0a1.65,1.65,0,0,1-1.57-.28,18.44,18.44,0,0,0-4.84-2.83,16.4,16.4,0,0,0-6.13-1.21,11.63,11.63,0,0,0-7.9,2.6,8.06,8.06,0,0,0-3,6.27,7.15,7.15,0,0,0,2.36,5.4,44.2,44.2,0,0,0,7.38,5.21,74.42,74.42,0,0,1,7.08,4.72,19.45,19.45,0,0,1,4.68,5.26,13.94,13.94,0,0,1,1.93,7.47,16.65,16.65,0,0,1-2.84,9.45,19.84,19.84,0,0,1-8,6.75A25.72,25.72,0,0,1,119.92,257a36.44,36.44,0,0,1-8.68-1.11,35.43,35.43,0,0,1-7.14-2.55,1.6,1.6,0,0,1-.83-1.84l1.9-7.39a1.65,1.65,0,0,1,.84-1l.5-.25a19.85,19.85,0,0,0,6.95,5,19.42,19.42,0,0,0,7.61,1.69,12.41,12.41,0,0,0,8.3-2.7,8.41,8.41,0,0,0,3.18-6.66,7.29,7.29,0,0,0-2.41-5.59,50.42,50.42,0,0,0-7.43-5.3,65.55,65.55,0,0,1-6.89-4.58,18.81,18.81,0,0,1-4.53-5.21,14,14,0,0,1-1.88-7.38,16.17,16.17,0,0,1,2.84-9.3,19.56,19.56,0,0,1,7.76-6.61,25,25,0,0,1,11.09-2.41,37,37,0,0,1,13.09,2.44A1.62,1.62,0,0,1,145.14,198.17Z"/><path class="cls-4" d="M167.54,205.73l-1.47,10.47a4.07,4.07,0,0,0,4,4.64l6.2.11,9.74-.29.48.68-.84,4a4.07,4.07,0,0,1-4.1,3.23l-7-.19-6.65.13a4.05,4.05,0,0,0-4,3.51l-.68,4.84-.72,7.17a4.08,4.08,0,0,0,4,4.48l7.05.12,14.17-.48.29.77-.8,4a4.06,4.06,0,0,1-4,3.28h-26.7a4.07,4.07,0,0,1-4-4.7l2.16-13.9,4.5-39.68a4.09,4.09,0,0,1,4.05-3.62h31.27l.48.87-.9,4a4.09,4.09,0,0,1-4.09,3.19l-10.63-.3-7.77.07A4.08,4.08,0,0,0,167.54,205.73Z"/><path class="cls-5" d="M235.68,198.17l-1.94,6.47a1.62,1.62,0,0,1-1,1.06h0a1.65,1.65,0,0,1-1.57-.28,18.44,18.44,0,0,0-4.84-2.83,16.4,16.4,0,0,0-6.13-1.21,11.63,11.63,0,0,0-7.9,2.6,8,8,0,0,0-3,6.27,7.11,7.11,0,0,0,2.36,5.4,44.2,44.2,0,0,0,7.38,5.21,74.42,74.42,0,0,1,7.08,4.72,19.45,19.45,0,0,1,4.68,5.26,13.94,13.94,0,0,1,1.93,7.47,16.58,16.58,0,0,1-2.85,9.45,19.74,19.74,0,0,1-7.95,6.75A25.72,25.72,0,0,1,210.46,257a36.44,36.44,0,0,1-8.68-1.11,35.43,35.43,0,0,1-7.14-2.55,1.6,1.6,0,0,1-.83-1.84l1.9-7.39a1.65,1.65,0,0,1,.84-1l.5-.25a19.91,19.91,0,0,0,6.94,5,19.5,19.5,0,0,0,7.62,1.69,12.36,12.36,0,0,0,8.29-2.7,8.39,8.39,0,0,0,3.19-6.66,7.29,7.29,0,0,0-2.41-5.59,50.42,50.42,0,0,0-7.43-5.3,64.51,64.51,0,0,1-6.89-4.58,19,19,0,0,1-4.54-5.21,14.1,14.1,0,0,1-1.87-7.38,16.17,16.17,0,0,1,2.84-9.3,19.5,19.5,0,0,1,7.76-6.61,25,25,0,0,1,11.09-2.41,37,37,0,0,1,13.09,2.44A1.62,1.62,0,0,1,235.68,198.17Z"/><path class="cls-6" d="M267.25,236.86l-1.73,17.4a2.21,2.21,0,0,1-2.2,2h-5a2.19,2.19,0,0,1-2.17-2.54l2.49-16.06,4.7-41.34a2.21,2.21,0,0,1,2.19-2h5.05a2.2,2.2,0,0,1,2.18,2.51Zm27.68-41.67a2.23,2.23,0,0,1,1.74-.85h3.62a2.55,2.55,0,0,1,1.9,4.26l-21.34,24.84a2.53,2.53,0,0,0-.3,3c5.52,9.22,12.08,17.75,19.67,27.77l-.29,1.16a92.63,92.63,0,0,1-9.35,1.73l-1-.48c-7.85-11.89-13.21-22.31-19.74-32.47a1.09,1.09,0,0,1,.11-1.07"/><path class="cls-7" d="M319.63,236.86l-2.07,17.56a2,2,0,0,1-2,1.82h-5.37a2,2,0,0,1-2-2.31l2.07-16.33,5.09-41.47a2,2,0,0,1,2-1.79h5.44a2,2,0,0,1,2,2.29Z"/><path class="cls-8" d="M377.36,195.21c-.31,1.22-.93,4.1-.93,4.1a3.78,3.78,0,0,1-3.91,2.95l-7.21-.39h-1.8a3.8,3.8,0,0,0-3.77,3.28l-3.93,32-2,15.68a3.8,3.8,0,0,1-3.78,3.42h-1.65a3.8,3.8,0,0,1-3.75-4.4l1.84-14.15,3.84-31.62a3.8,3.8,0,0,0-3.77-4.21h-.89s-6.67.22-10.79.57c-.95.08-.65-.61-.58-.87.31-1.22,1-4.32,1-4.32a3.81,3.81,0,0,1,3.7-2.91h37.89C377.33,194.34,377.52,194.55,377.36,195.21Z"/><rect class="cls-9" width="391.18" height="391.18"/><circle class="cls-9" cx="195.59" cy="195.59" r="195.59"/></g></g></svg>